<?xml version="1.0" encoding="utf-8" standalone="no"?><!DOCTYPE svg PUBLIC "-//W3C//DTD SVG 1.1//EN"
  "http://www.w3.org/Graphics/SVG/1.1/DTD/svg11.dtd"><svg xmlns:xlink="http://www.w3.org/1999/xlink" width="648pt" height="324pt" viewBox="0 0 648 324" xmlns="http://www.w3.org/2000/svg" version="1.1"><defs><style type="text/css">*{stroke-linejoin: round; stroke-linecap: butt}</style></defs><g id="figure_1"><g id="patch_1"><path d="M 0 324 L 648 324 L 648 0 L 0 0 z" style="fill: #ffffff"/></g><g id="axes_1"><g id="patch_2"><path d="M 52.04 299 L 626.08 299 L 626.08 30.88 L 52.04 30.88 z" style="fill: #fafafa"/></g><g id="matplotlib.axis_1"><g id="xtick_1"><g id="line2d_2"><defs><path id="mfcabd5c2a0" d="M 0 0 L 0 3.5" style="stroke: #000000; stroke-width: 0.8"/></defs><g><use xlink:href="#mfcabd5c2a0" x="78.13" y="299" style="stroke: #000000; stroke-width: 0.8"/></g></g><g id="text_1"><text style="font-size: 8px; font-family: sans-serif; text-anchor: middle" x="78.13" y="312.08">Jan</text></g></g><g id="xtick_2"><g id="line2d_4"><g><use xlink:href="#mfcabd5c2a0" x="125.57" y="299" style="stroke: #000000; stroke-width: 0.8"/></g></g><g id="text_2"><text style="font-size: 8px; font-family: sans-serif; text-anchor: middle" x="125.57" y="312.08">Feb</text></g></g><g id="xtick_3"><g id="line2d_6"><g><use xlink:href="#mfcabd5c2a0" x="173.02" y="299" style="stroke: #000000; stroke-width: 0.8"/></g></g><g id="text_3"><text style="font-size: 8px; font-family: sans-serif; text-anchor: middle" x="173.02" y="312.08">Mar</text></g></g><g id="xtick_4"><g id="line2d_8"><g><use xlink:href="#mfcabd5c2a0" x="220.46" y="299" style="stroke: #000000; stroke-width: 0.8"/></g></g><g id="text_4"><text style="font-size: 8px; font-family: sans-serif; text-anchor: middle" x="220.46" y="312.08">Apr</text></g></g><g id="xtick_5"><g id="line2d_10"><g><use xlink:href="#mfcabd5c2a0" x="267.90" y="299" style="stroke: #000000; stroke-width: 0.8"/></g></g><g id="text_5"><text style="font-size: 8px; font-family: sans-serif; text-anchor: middle" x="267.90" y="312.08">May</text></g></g><g id="xtick_6"><g id="line2d_12"><g><use xlink:href="#mfcabd5c2a0" x="315.34" y="299" style="stroke: #000000; stroke-width: 0.8"/></g></g><g id="text_6"><text style="font-size: 8px; font-family: sans-serif; text-anchor: middle" x="315.34" y="312.08">Jun</text></g></g><g id="xtick_7"><g id="line2d_14"><g><use xlink:href="#mfcabd5c2a0" x="362.78" y="299" style="stroke: #000000; stroke-width: 0.8"/></g></g><g id="text_7"><text style="font-size: 8px; font-family: sans-serif; text-anchor: middle" x="362.78" y="312.08">Jul</text></g></g><g id="xtick_8"><g id="line2d_16"><g><use xlink:href="#mfcabd5c2a0" x="410.22" y="299" style="stroke: #000000; stroke-width: 0.8"/></g></g><g id="text_8"><text style="font-size: 8px; font-family: sans-serif; text-anchor: middle" x="410.22" y="312.08">Aug</text></g></g><g id="xtick_9"><g id="line2d_18"><g><use xlink:href="#mfcabd5c2a0" x="457.66" y="299" style="stroke: #000000; stroke-width: 0.8"/></g></g><g id="text_9"><text style="font-size: 8px; font-family: sans-serif; text-anchor: middle" x="457.66" y="312.08">Sep</text></g></g><g id="xtick_10"><g id="line2d_20"><g><use xlink:href="#mfcabd5c2a0" x="505.11" y="299" style="stroke: #000000; stroke-width: 0.8"/></g></g><g id="text_10"><text style="font-size: 8px; font-family: sans-serif; text-anchor: middle" x="505.11" y="312.08">Oct</text></g></g><g id="xtick_11"><g id="line2d_22"><g><use xlink:href="#mfcabd5c2a0" x="552.55" y="299" style="stroke: #000000; stroke-width: 0.8"/></g></g><g id="text_11"><text style="font-size: 8px; font-family: sans-serif; text-anchor: middle" x="552.55" y="312.08">Nov</text></g></g><g id="xtick_12"><g id="line2d_24"><g><use xlink:href="#mfcabd5c2a0" x="599.99" y="299" style="stroke: #000000; stroke-width: 0.8"/></g></g><g id="text_12"><text style="font-size: 8px; font-family: sans-serif; text-anchor: middle" x="599.99" y="312.08">Dec</text></g></g></g><g id="matplotlib.axis_2"><g id="ytick_1"><g id="line2d_26"><defs><path id="mb0267d72f2" d="M 0 0 L -3.5 0" style="stroke: #000000; stroke-width: 0.8"/></defs><g><use xlink:href="#mb0267d72f2" x="52.04" y="299" style="stroke: #000000; stroke-width: 0.8"/></g></g><g id="text_13"><text style="font-size: 9px; font-family: sans-serif; text-anchor: end" x="45.04" y="302.42">50%</text></g></g><g id="ytick_2"><g id="line2d_28"><g><use xlink:href="#mb0267d72f2" x="52.04" y="254.06" style="stroke: #000000; stroke-width: 0.8"/></g></g><g id="text_14"><text style="font-size: 9px; font-family: sans-serif; text-anchor: end" x="45.04" y="257.48">53%</text></g></g><g id="ytick_3"><g id="line2d_30"><g><use xlink:href="#mb0267d72f2" x="52.04" y="209.12" style="stroke: #000000; stroke-width: 0.8"/></g></g><g id="text_15"><text style="font-size: 9px; font-family: sans-serif; text-anchor: end" x="45.04" y="212.54">56%</text></g></g><g id="ytick_4"><g id="line2d_32"><g><use xlink:href="#mb0267d72f2" x="52.04" y="164.18" style="stroke: #000000; stroke-width: 0.8"/></g></g><g id="text_16"><text style="font-size: 9px; font-family: sans-serif; text-anchor: end" x="45.04" y="167.60">59%</text></g></g><g id="ytick_5"><g id="line2d_34"><g><use xlink:href="#mb0267d72f2" x="52.04" y="119.23" style="stroke: #000000; stroke-width: 0.8"/></g></g><g id="text_17"><text style="font-size: 9px; font-family: sans-serif; text-anchor: end" x="45.04" y="122.65">62%</text></g></g><g id="ytick_6"><g id="line2d_36"><g><use xlink:href="#mb0267d72f2" x="52.04" y="74.29" style="stroke: #000000; stroke-width: 0.8"/></g></g><g id="text_18"><text style="font-size: 9px; font-family: sans-serif; text-anchor: end" x="45.04" y="77.71">65%</text></g></g><g id="ytick_7"><g id="line2d_38"><g><use xlink:href="#mb0267d72f2" x="52.04" y="29.35" style="stroke: #000000; stroke-width: 0.8"/></g></g><g id="text_19"><text style="font-size: 9px; font-family: sans-serif; text-anchor: end" x="45.04" y="32.77">68%</text></g></g><g id="text_20"><text style="font-size: 10px; font-family: sans-serif; text-anchor: middle" x="18.96" y="164.94" transform="rotate(-90 18.96 164.94)">Gross Margin (%)</text></g></g><g id="line2d_39"><path d="M 78.13 115.18 L 125.57 115.18 L 173.02 115.18 L 220.46 115.18 L 267.90 115.18 L 315.34 115.18 L 362.78 129.48 L 410.22 137.68 L 457.66 137.10 L 505.11 138.80 L 552.55 148.72 L 599.99 148.72" clip-path="url(#p2c6b19ef8c)" style="fill: none; stroke: #1565c0; stroke-width: 2; stroke-linecap: square"/><defs><path id="m540d2ef174" d="M -0 2.47 L 2.47 0 L 0 -2.47 L -2.47 -0 z" style="stroke: #1565c0; stroke-linejoin: miter"/></defs><g clip-path="url(#p2c6b19ef8c)"><use xlink:href="#m540d2ef174" x="78.13" y="115.18" style="fill: #1565c0; stroke: #1565c0; stroke-linejoin: miter"/><use xlink:href="#m540d2ef174" x="220.46" y="115.18" style="fill: #1565c0; stroke: #1565c0; stroke-linejoin: miter"/><use xlink:href="#m540d2ef174" x="362.78" y="129.48" style="fill: #1565c0; stroke: #1565c0; stroke-linejoin: miter"/><use xlink:href="#m540d2ef174" x="505.11" y="138.80" style="fill: #1565c0; stroke: #1565c0; stroke-linejoin: miter"/></g></g><g id="line2d_40"><path d="M 78.13 203.07 L 125.57 203.09 L 173.02 203.27 L 220.46 202.72 L 267.90 203.20 L 315.34 203.06 L 362.78 206.06 L 410.22 207.55 L 457.66 206.04 L 505.11 209.90 L 552.55 212.22 L 599.99 210.54" clip-path="url(#p2c6b19ef8c)" style="fill: none; stroke: #2e7d32; stroke-width: 2; stroke-linecap: square"/><defs><path id="mf4988b0eb8" d="M -0 2.47 L 2.47 0 L 0 -2.47 L -2.47 -0 z" style="stroke: #2e7d32; stroke-linejoin: miter"/></defs><g clip-path="url(#p2c6b19ef8c)"><use xlink:href="#mf4988b0eb8" x="78.13" y="203.07" style="fill: #2e7d32; stroke: #2e7d32; stroke-linejoin: miter"/><use xlink:href="#mf4988b0eb8" x="220.46" y="202.72" style="fill: #2e7d32; stroke: #2e7d32; stroke-linejoin: miter"/><use xlink:href="#mf4988b0eb8" x="362.78" y="206.06" style="fill: #2e7d32; stroke: #2e7d32; stroke-linejoin: miter"/><use xlink:href="#mf4988b0eb8" x="505.11" y="209.90" style="fill: #2e7d32; stroke: #2e7d32; stroke-linejoin: miter"/></g></g><g id="line2d_41"><path d="M 78.13 218.96 L 125.57 219.07 L 173.02 218.97 L 220.46 223.93 L 267.90 227.43 L 315.34 227.43 L 362.78 226.82 L 410.22 226.82 L 457.66 226.82 L 505.11 226.81 L 552.55 234.68 L 599.99 235.43" clip-path="url(#p2c6b19ef8c)" style="fill: none; stroke: #e65100; stroke-width: 2; stroke-linecap: square"/><defs><path id="md4ec2bc7d0" d="M -0 2.47 L 2.47 0 L 0 -2.47 L -2.47 -0 z" style="stroke: #e65100; stroke-linejoin: miter"/></defs><g clip-path="url(#p2c6b19ef8c)"><use xlink:href="#md4ec2bc7d0" x="78.13" y="218.96" style="fill: #e65100; stroke: #e65100; stroke-linejoin: miter"/><use xlink:href="#md4ec2bc7d0" x="220.46" y="223.93" style="fill: #e65100; stroke: #e65100; stroke-linejoin: miter"/><use xlink:href="#md4ec2bc7d0" x="362.78" y="226.82" style="fill: #e65100; stroke: #e65100; stroke-linejoin: miter"/><use xlink:href="#md4ec2bc7d0" x="505.11" y="226.81" style="fill: #e65100; stroke: #e65100; stroke-linejoin: miter"/></g></g><g id="line2d_42"><path d="M 52.04 226.82 L 626.08 226.82" clip-path="url(#p2c6b19ef8c)" style="fill: none; stroke-dasharray: 2.59,1.12; stroke-dashoffset: 0; stroke: #546e7a; stroke-opacity: 0.55; stroke-width: 0.7"/></g><g id="line2d_43"><path d="M 52.04 148.72 L 626.08 148.72" clip-path="url(#p2c6b19ef8c)" style="fill: none; stroke-dasharray: 2.59,1.12; stroke-dashoffset: 0; stroke: #546e7a; stroke-opacity: 0.55; stroke-width: 0.7"/></g><g id="line2d_44"><path d="M 52.04 70.62 L 626.08 70.62" clip-path="url(#p2c6b19ef8c)" style="fill: none; stroke-dasharray: 2.59,1.12; stroke-dashoffset: 0; stroke: #546e7a; stroke-opacity: 0.55; stroke-width: 0.7"/></g><g id="patch_3"><path d="M 52.04 299 L 52.04 30.88" style="fill: none; stroke: #000000; stroke-width: 0.8; stroke-linejoin: miter; stroke-linecap: square"/></g><g id="patch_4"><path d="M 52.04 299 L 626.08 299" style="fill: none; stroke: #000000; stroke-width: 0.8; stroke-linejoin: miter; stroke-linecap: square"/></g><g id="text_21"><text style="font-weight: 700; font-size: 8px; font-family: sans-serif; text-anchor: start; fill: #1565c0" x="607.11" y="150.93">60.0%</text></g><g id="text_22"><text style="font-weight: 700; font-size: 8px; font-family: sans-serif; text-anchor: start; fill: #2e7d32" x="607.11" y="212.75">56.1%</text></g><g id="text_23"><text style="font-weight: 700; font-size: 8px; font-family: sans-serif; text-anchor: start; fill: #e65100" x="607.11" y="237.64">54.5%</text></g><g id="text_24"><text style="font-size: 7px; font-family: sans-serif; text-anchor: start; fill: #546e7a" x="618.97" y="225.00">55%</text></g><g id="text_25"><text style="font-size: 7px; font-family: sans-serif; text-anchor: start; fill: #546e7a" x="618.97" y="146.93">60%</text></g><g id="text_26"><text style="font-size: 7px; font-family: sans-serif; text-anchor: start; fill: #546e7a" x="618.97" y="68.83">65%</text></g><g id="text_27"><text style="font-weight: 700; font-size: 12px; font-family: sans-serif; text-anchor: middle" x="339.06" y="20.88">Gross Margin Trend by Product - FY2024 (Synthetic Demo)</text></g><g id="legend_1"><g id="patch_5"><path d="M 57.64 295 L 155.85 295 Q 157.45 295 157.45 293.40 L 157.45 258.97 Q 157.45 257.37 155.85 257.37 L 57.64 257.37 Q 56.04 257.37 56.04 258.97 L 56.04 293.40 Q 56.04 295 57.64 295 z" style="fill: #fafafa; opacity: 0.9; stroke: #cccccc; stroke-linejoin: miter"/></g><g id="line2d_51"><path d="M 59.24 263.85 L 67.24 263.85 L 75.24 263.85" style="fill: none; stroke: #1565c0; stroke-width: 2; stroke-linecap: square"/><g><use xlink:href="#m540d2ef174" x="67.24" y="263.85" style="fill: #1565c0; stroke: #1565c0; stroke-linejoin: miter"/></g></g><g id="text_28"><text style="font-size: 8px; font-family: sans-serif; text-anchor: start" x="81.64" y="266.65">Analytics Platform</text></g><g id="line2d_52"><path d="M 59.24 275.59 L 67.24 275.59 L 75.24 275.59" style="fill: none; stroke: #2e7d32; stroke-width: 2; stroke-linecap: square"/><g><use xlink:href="#mf4988b0eb8" x="67.24" y="275.59" style="fill: #2e7d32; stroke: #2e7d32; stroke-linejoin: miter"/></g></g><g id="text_29"><text style="font-size: 8px; font-family: sans-serif; text-anchor: start" x="81.64" y="278.39">Risk Engine</text></g><g id="line2d_53"><path d="M 59.24 287.34 L 67.24 287.34 L 75.24 287.34" style="fill: none; stroke: #e65100; stroke-width: 2; stroke-linecap: square"/><g><use xlink:href="#md4ec2bc7d0" x="67.24" y="287.34" style="fill: #e65100; stroke: #e65100; stroke-linejoin: miter"/></g></g><g id="text_30"><text style="font-size: 8px; font-family: sans-serif; text-anchor: start" x="81.64" y="290.14">Data API</text></g></g></g></g><defs><clipPath id="p2c6b19ef8c"><rect x="52.04" y="30.88" width="574.04" height="268.12"/></clipPath></defs></svg>