<?xml version="1.0" encoding="utf-8" standalone="no"?><!DOCTYPE svg PUBLIC "-//W3C//DTD SVG 1.1//EN"
  "http://www.w3.org/Graphics/SVG/1.1/DTD/svg11.dtd"><svg xmlns:xlink="http://www.w3.org/1999/xlink" width="1008pt" height="360pt" viewBox="0 0 1008 360" xmlns="http://www.w3.org/2000/svg" version="1.1"><defs><style type="text/css">*{stroke-linejoin: round; stroke-linecap: butt}</style></defs><g id="figure_1"><g id="patch_1"><path d="M 0 360 L 1008 360 L 1008 0 L 0 0 z" style="fill: #ffffff"/></g><g id="axes_1"><g id="patch_2"><path d="M 30.53 189.92 L 247.54 189.92 Q 257.40 189.92 257.40 186.79 L 257.40 68.11 Q 257.40 64.99 247.54 64.99 L 30.53 64.99 Q 20.66 64.99 20.66 68.11 L 20.66 186.79 Q 20.66 189.92 30.53 189.92 z" clip-path="url(#p4c059613b3)" style="fill: #ffffff; stroke: #ddeeff; stroke-width: 1.5; stroke-linejoin: miter"/></g><g id="patch_3"><path d="M 267.26 189.92 L 484.27 189.92 Q 494.14 189.92 494.14 186.79 L 494.14 68.11 Q 494.14 64.99 484.27 64.99 L 267.26 64.99 Q 257.40 64.99 257.40 68.11 L 257.40 186.79 Q 257.40 189.92 267.26 189.92 z" clip-path="url(#p4c059613b3)" style="fill: #ffffff; stroke: #ddeeff; stroke-width: 1.5; stroke-linejoin: miter"/></g><g id="patch_4"><path d="M 504 189.92 L 721.01 189.92 Q 730.87 189.92 730.87 186.79 L 730.87 68.11 Q 730.87 64.99 721.01 64.99 L 504 64.99 Q 494.14 64.99 494.14 68.11 L 494.14 186.79 Q 494.14 189.92 504 189.92 z" clip-path="url(#p4c059613b3)" style="fill: #ffffff; stroke: #ddeeff; stroke-width: 1.5; stroke-linejoin: miter"/></g><g id="patch_5"><path d="M 740.74 189.92 L 957.74 189.92 Q 967.61 189.92 967.61 186.79 L 967.61 68.11 Q 967.61 64.99 957.74 64.99 L 740.74 64.99 Q 730.87 64.99 730.87 68.11 L 730.87 186.79 Q 730.87 189.92 740.74 189.92 z" clip-path="url(#p4c059613b3)" style="fill: #ffffff; stroke: #ddeeff; stroke-width: 1.5; stroke-linejoin: miter"/></g><g id="patch_6"><path d="M 30.53 333.58 L 247.54 333.58 Q 257.40 333.58 257.40 330.46 L 257.40 211.78 Q 257.40 208.66 247.54 208.66 L 30.53 208.66 Q 20.66 208.66 20.66 211.78 L 20.66 330.46 Q 20.66 333.58 30.53 333.58 z" clip-path="url(#p4c059613b3)" style="fill: #ffffff; stroke: #ddeeff; stroke-width: 1.5; stroke-linejoin: miter"/></g><g id="patch_7"><path d="M 267.26 333.58 L 484.27 333.58 Q 494.14 333.58 494.14 330.46 L 494.14 211.78 Q 494.14 208.66 484.27 208.66 L 267.26 208.66 Q 257.40 208.66 257.40 211.78 L 257.40 330.46 Q 257.40 333.58 267.26 333.58 z" clip-path="url(#p4c059613b3)" style="fill: #ffffff; stroke: #ddeeff; stroke-width: 1.5; stroke-linejoin: miter"/></g><g id="patch_8"><path d="M 504 333.58 L 721.01 333.58 Q 730.87 333.58 730.87 330.46 L 730.87 211.78 Q 730.87 208.66 721.01 208.66 L 504 208.66 Q 494.14 208.66 494.14 211.78 L 494.14 330.46 Q 494.14 333.58 504 333.58 z" clip-path="url(#p4c059613b3)" style="fill: #ffffff; stroke: #ddeeff; stroke-width: 1.5; stroke-linejoin: miter"/></g><g id="patch_9"><path d="M 740.74 333.58 L 957.74 333.58 Q 967.61 333.58 967.61 330.46 L 967.61 211.78 Q 967.61 208.66 957.74 208.66 L 740.74 208.66 Q 730.87 208.66 730.87 211.78 L 730.87 330.46 Q 730.87 333.58 740.74 333.58 z" clip-path="url(#p4c059613b3)" style="fill: #ffffff; stroke: #ddeeff; stroke-width: 1.5; stroke-linejoin: miter"/></g><g id="text_1"><text style="font-size: 9px; font-family: sans-serif; text-anchor: middle; fill: #546e7a" x="139.03" y="103.83">Total FY Revenue</text></g><g id="text_2"><text style="font-weight: 700; font-size: 14px; font-family: sans-serif; text-anchor: middle; fill: #1565c0" x="139.03" y="152.68">£6.74M</text></g><g id="text_3"><text style="font-size: 9px; font-family: sans-serif; text-anchor: middle; fill: #546e7a" x="375.77" y="103.83">Total Gross Profit</text></g><g id="text_4"><text style="font-weight: 700; font-size: 14px; font-family: sans-serif; text-anchor: middle; fill: #2e7d32" x="375.77" y="152.68">£3.93M</text></g><g id="text_5"><text style="font-size: 9px; font-family: sans-serif; text-anchor: middle; fill: #546e7a" x="612.50" y="103.83">Avg Gross Margin</text></g><g id="text_6"><text style="font-weight: 700; font-size: 14px; font-family: sans-serif; text-anchor: middle; fill: #2e7d32" x="612.50" y="152.68">58.3%</text></g><g id="text_7"><text style="font-size: 9px; font-family: sans-serif; text-anchor: middle; fill: #546e7a" x="849.24" y="103.83">Jan MRR</text></g><g id="text_8"><text style="font-weight: 700; font-size: 14px; font-family: sans-serif; text-anchor: middle; fill: #1565c0" x="849.24" y="152.68">£489,000</text></g><g id="text_9"><text style="font-size: 9px; font-family: sans-serif; text-anchor: middle; fill: #546e7a" x="139.03" y="247.49">Dec MRR</text></g><g id="text_10"><text style="font-weight: 700; font-size: 14px; font-family: sans-serif; text-anchor: middle; fill: #1565c0" x="139.03" y="296.35">£639,300</text></g><g id="text_11"><text style="font-size: 9px; font-family: sans-serif; text-anchor: middle; fill: #546e7a" x="375.77" y="247.49">MRR Growth</text></g><g id="text_12"><text style="font-weight: 700; font-size: 14px; font-family: sans-serif; text-anchor: middle; fill: #2e7d32" x="375.77" y="296.35">+30.7%</text></g><g id="text_13"><text style="font-size: 9px; font-family: sans-serif; text-anchor: middle; fill: #546e7a" x="612.50" y="247.49">Avg Monthly Churn</text></g><g id="text_14"><text style="font-weight: 700; font-size: 14px; font-family: sans-serif; text-anchor: middle; fill: #e65100" x="612.50" y="296.35">2.2%</text></g><g id="text_15"><text style="font-size: 9px; font-family: sans-serif; text-anchor: middle; fill: #546e7a" x="849.24" y="247.49">Best Growth Month</text></g><g id="text_16"><text style="font-weight: 700; font-size: 14px; font-family: sans-serif; text-anchor: middle; fill: #00695c" x="849.24" y="296.35">Apr +2.6%</text></g><g id="text_17"><text style="font-weight: 700; font-size: 13px; font-family: sans-serif; text-anchor: middle" x="504" y="20.88">Executive Summary - FY2024 SaaS Performance (Synthetic Demo)</text></g></g></g><defs><clipPath id="p4c059613b3"><rect x="10.80" y="36.88" width="986.40" height="312.32"/></clipPath></defs></svg>