<?xml version="1.0" encoding="utf-8" standalone="no"?><!DOCTYPE svg PUBLIC "-//W3C//DTD SVG 1.1//EN"
  "http://www.w3.org/Graphics/SVG/1.1/DTD/svg11.dtd"><svg xmlns:xlink="http://www.w3.org/1999/xlink" width="576pt" height="288pt" viewBox="0 0 576 288" xmlns="http://www.w3.org/2000/svg" version="1.1"><defs><style type="text/css">*{stroke-linejoin: round; stroke-linecap: butt}</style></defs><g id="figure_1"><g id="patch_1"><path d="M 0 288 L 576 288 L 576 0 L 0 0 z" style="fill: #ffffff"/></g><g id="axes_1"><g id="patch_2"><path d="M 99.61 260.84 L 501.66 260.84 L 501.66 30.88 L 99.61 30.88 z" style="fill: #fafafa"/></g><g id="QuadMesh_1"><path d="M 99.61 260.84 L 233.63 260.84 L 233.63 184.19 L 99.61 184.19 L 99.61 260.84" clip-path="url(#pdb4c76203f)" style="fill: #08306b; stroke: #ffffff; stroke-width: 2"/><path d="M 233.63 260.84 L 367.64 260.84 L 367.64 184.19 L 233.63 184.19 L 233.63 260.84" clip-path="url(#pdb4c76203f)" style="fill: #2373b6; stroke: #ffffff; stroke-width: 2"/><path d="M 367.64 260.84 L 501.66 260.84 L 501.66 184.19 L 367.64 184.19 L 367.64 260.84" clip-path="url(#pdb4c76203f)" style="fill: #539ecd; stroke: #ffffff; stroke-width: 2"/><path d="M 99.61 184.19 L 233.63 184.19 L 233.63 107.53 L 99.61 107.53 L 99.61 184.19" clip-path="url(#pdb4c76203f)" style="fill: #d0e1f2; stroke: #ffffff; stroke-width: 2"/><path d="M 233.63 184.19 L 367.64 184.19 L 367.64 107.53 L 233.63 107.53 L 233.63 184.19" clip-path="url(#pdb4c76203f)" style="fill: #e3eef8; stroke: #ffffff; stroke-width: 2"/><path d="M 367.64 184.19 L 501.66 184.19 L 501.66 107.53 L 367.64 107.53 L 367.64 184.19" clip-path="url(#pdb4c76203f)" style="fill: #f7fbff; stroke: #ffffff; stroke-width: 2"/><path d="M 99.61 107.53 L 233.63 107.53 L 233.63 30.88 L 99.61 30.88 L 99.61 107.53" clip-path="url(#pdb4c76203f)" style="fill: #3d8dc4; stroke: #ffffff; stroke-width: 2"/><path d="M 233.63 107.53 L 367.64 107.53 L 367.64 30.88 L 233.63 30.88 L 233.63 107.53" clip-path="url(#pdb4c76203f)" style="fill: #82bbdb; stroke: #ffffff; stroke-width: 2"/><path d="M 367.64 107.53 L 501.66 107.53 L 501.66 30.88 L 367.64 30.88 L 367.64 107.53" clip-path="url(#pdb4c76203f)" style="fill: #add0e6; stroke: #ffffff; stroke-width: 2"/></g><g id="matplotlib.axis_1"><g id="xtick_1"><g id="line2d_1"><defs><path id="mdc1f2dc1d1" d="M 0 0 L 0 3.5" style="stroke: #000000; stroke-width: 0.8"/></defs><g><use xlink:href="#mdc1f2dc1d1" x="166.62" y="260.84" style="stroke: #000000; stroke-width: 0.8"/></g></g><g id="text_1"><text style="font-size: 9px; font-family: sans-serif; text-anchor: middle" x="166.62" y="274.68">UK</text></g></g><g id="xtick_2"><g id="line2d_2"><g><use xlink:href="#mdc1f2dc1d1" x="300.63" y="260.84" style="stroke: #000000; stroke-width: 0.8"/></g></g><g id="text_2"><text style="font-size: 9px; font-family: sans-serif; text-anchor: middle" x="300.63" y="274.68">US</text></g></g><g id="xtick_3"><g id="line2d_3"><g><use xlink:href="#mdc1f2dc1d1" x="434.65" y="260.84" style="stroke: #000000; stroke-width: 0.8"/></g></g><g id="text_3"><text style="font-size: 9px; font-family: sans-serif; text-anchor: middle" x="434.65" y="274.68">EU</text></g></g></g><g id="matplotlib.axis_2"><g id="ytick_1"><g id="line2d_4"><defs><path id="m1f684b3bf4" d="M 0 0 L -3.5 0" style="stroke: #000000; stroke-width: 0.8"/></defs><g><use xlink:href="#m1f684b3bf4" x="99.61" y="222.51" style="stroke: #000000; stroke-width: 0.8"/></g></g><g id="text_4"><text style="font-size: 9px; font-family: sans-serif; text-anchor: end" x="92.61" y="225.93">Analytics Platform</text></g></g><g id="ytick_2"><g id="line2d_5"><g><use xlink:href="#m1f684b3bf4" x="99.61" y="145.86" style="stroke: #000000; stroke-width: 0.8"/></g></g><g id="text_5"><text style="font-size: 9px; font-family: sans-serif; text-anchor: end" x="92.61" y="149.28">Data API</text></g></g><g id="ytick_3"><g id="line2d_6"><g><use xlink:href="#m1f684b3bf4" x="99.61" y="69.21" style="stroke: #000000; stroke-width: 0.8"/></g></g><g id="text_6"><text style="font-size: 9px; font-family: sans-serif; text-anchor: end" x="92.61" y="72.63">Risk Engine</text></g></g></g><g id="patch_3"><path d="M 99.61 260.84 L 99.61 30.88" style="fill: none; stroke: #000000; stroke-width: 0.8; stroke-linejoin: miter; stroke-linecap: square"/></g><g id="patch_4"><path d="M 99.61 260.84 L 501.66 260.84" style="fill: none; stroke: #000000; stroke-width: 0.8; stroke-linejoin: miter; stroke-linecap: square"/></g><g id="text_7"><text style="font-weight: 700; font-size: 8px; font-family: sans-serif; fill: #ffffff" transform="translate(150.04 220.24)">£1214k</text><text style="font-weight: 700; font-size: 8px; font-family: sans-serif; fill: #ffffff" transform="translate(149.08 229.20)">(18.0%)</text></g><g id="text_8"><text style="font-weight: 700; font-size: 8px; font-family: sans-serif; fill: #ffffff" transform="translate(286.84 220.24)">£996k</text><text style="font-weight: 700; font-size: 8px; font-family: sans-serif; fill: #ffffff" transform="translate(283.10 229.20)">(14.8%)</text></g><g id="text_9"><text style="font-weight: 700; font-size: 8px; font-family: sans-serif; fill: #ffffff" transform="translate(420.86 220.24)">£853k</text><text style="font-weight: 700; font-size: 8px; font-family: sans-serif; fill: #ffffff" transform="translate(417.12 229.20)">(12.7%)</text></g><g id="text_10"><text style="font-weight: 700; font-size: 8px; font-family: sans-serif; fill: #1a1a2e" transform="translate(152.83 143.59)">£540k</text><text style="font-weight: 700; font-size: 8px; font-family: sans-serif; fill: #1a1a2e" transform="translate(151.87 152.55)">(8.0%)</text></g><g id="text_11"><text style="font-weight: 700; font-size: 8px; font-family: sans-serif; fill: #1a1a2e" transform="translate(286.84 143.59)">£457k</text><text style="font-weight: 700; font-size: 8px; font-family: sans-serif; fill: #1a1a2e" transform="translate(285.88 152.55)">(6.8%)</text></g><g id="text_12"><text style="font-weight: 700; font-size: 8px; font-family: sans-serif; fill: #1a1a2e" transform="translate(420.86 143.59)">£370k</text><text style="font-weight: 700; font-size: 8px; font-family: sans-serif; fill: #1a1a2e" transform="translate(419.90 152.55)">(5.5%)</text></g><g id="text_13"><text style="font-weight: 700; font-size: 8px; font-family: sans-serif; fill: #ffffff" transform="translate(152.83 66.94)">£913k</text><text style="font-weight: 700; font-size: 8px; font-family: sans-serif; fill: #ffffff" transform="translate(149.08 75.89)">(13.6%)</text></g><g id="text_14"><text style="font-weight: 700; font-size: 8px; font-family: sans-serif; fill: #ffffff" transform="translate(286.84 66.94)">£745k</text><text style="font-weight: 700; font-size: 8px; font-family: sans-serif; fill: #ffffff" transform="translate(283.10 75.89)">(11.1%)</text></g><g id="text_15"><text style="font-weight: 700; font-size: 8px; font-family: sans-serif; fill: #1a1a2e" transform="translate(420.86 66.94)">£650k</text><text style="font-weight: 700; font-size: 8px; font-family: sans-serif; fill: #1a1a2e" transform="translate(419.90 75.89)">(9.6%)</text></g><g id="text_16"><text style="font-weight: 700; font-size: 12px; font-family: sans-serif; text-anchor: middle" x="300.63" y="20.88">Annual Revenue by Product &amp; Region - FY2024 (Synthetic Demo)</text></g></g></g><defs><clipPath id="pdb4c76203f"><rect x="99.61" y="30.88" width="402.05" height="229.96"/></clipPath></defs></svg>