<?xml version="1.0" encoding="utf-8" standalone="no"?><!DOCTYPE svg PUBLIC "-//W3C//DTD SVG 1.1//EN"
  "http://www.w3.org/Graphics/SVG/1.1/DTD/svg11.dtd"><svg xmlns:xlink="http://www.w3.org/1999/xlink" width="720pt" height="360pt" viewBox="0 0 720 360" xmlns="http://www.w3.org/2000/svg" version="1.1"><defs><style type="text/css">*{stroke-linejoin: round; stroke-linecap: butt}</style></defs><g id="figure_1"><g id="patch_1"><path d="M 0 360 L 720 360 L 720 0 L 0 0 z" style="fill: #ffffff"/></g><g id="axes_1"><g id="patch_2"><path d="M 99.61 318.76 L 701.76 318.76 L 701.76 30.88 L 99.61 30.88 z" style="fill: #fafafa"/></g><g id="patch_3"><path d="M 99.61 271.75 L 355.59 271.75 L 355.59 237.82 L 99.61 237.82 z" clip-path="url(#p186a8420b4)" style="fill: #1565c0; opacity: 0.9"/></g><g id="patch_4"><path d="M 99.61 174.82 L 531.71 174.82 L 531.71 140.89 L 99.61 140.89 z" clip-path="url(#p186a8420b4)" style="fill: #1565c0; opacity: 0.9"/></g><g id="patch_5"><path d="M 99.61 77.89 L 673.09 77.89 L 673.09 43.97 L 99.61 43.97 z" clip-path="url(#p186a8420b4)" style="fill: #1565c0; opacity: 0.9"/></g><g id="patch_6"><path d="M 99.61 305.67 L 240.44 305.67 L 240.44 271.75 L 99.61 271.75 z" clip-path="url(#p186a8420b4)" style="fill: #2e7d32; opacity: 0.9"/></g><g id="patch_7"><path d="M 99.61 208.75 L 342.91 208.75 L 342.91 174.82 L 99.61 174.82 z" clip-path="url(#p186a8420b4)" style="fill: #2e7d32; opacity: 0.9"/></g><g id="patch_8"><path d="M 99.61 111.82 L 450.50 111.82 L 450.50 77.89 L 99.61 77.89 z" clip-path="url(#p186a8420b4)" style="fill: #2e7d32; opacity: 0.9"/></g><g id="matplotlib.axis_1"><g id="xtick_1"><g id="line2d_2"><defs><path id="m5f93503ed2" d="M 0 0 L 0 3.5" style="stroke: #000000; stroke-width: 0.8"/></defs><g><use xlink:href="#m5f93503ed2" x="99.61" y="318.76" style="stroke: #000000; stroke-width: 0.8"/></g></g><g id="text_1"><text style="font-size: 9px; font-family: sans-serif; text-anchor: middle" x="99.61" y="332.60">£0.0M</text></g></g><g id="xtick_2"><g id="line2d_4"><g><use xlink:href="#m5f93503ed2" x="193.22" y="318.76" style="stroke: #000000; stroke-width: 0.8"/></g></g><g id="text_2"><text style="font-size: 9px; font-family: sans-serif; text-anchor: middle" x="193.22" y="332.60">£0.5M</text></g></g><g id="xtick_3"><g id="line2d_6"><g><use xlink:href="#m5f93503ed2" x="286.84" y="318.76" style="stroke: #000000; stroke-width: 0.8"/></g></g><g id="text_3"><text style="font-size: 9px; font-family: sans-serif; text-anchor: middle" x="286.84" y="332.60">£1.0M</text></g></g><g id="xtick_4"><g id="line2d_8"><g><use xlink:href="#m5f93503ed2" x="380.45" y="318.76" style="stroke: #000000; stroke-width: 0.8"/></g></g><g id="text_4"><text style="font-size: 9px; font-family: sans-serif; text-anchor: middle" x="380.45" y="332.60">£1.5M</text></g></g><g id="xtick_5"><g id="line2d_10"><g><use xlink:href="#m5f93503ed2" x="474.06" y="318.76" style="stroke: #000000; stroke-width: 0.8"/></g></g><g id="text_5"><text style="font-size: 9px; font-family: sans-serif; text-anchor: middle" x="474.06" y="332.60">£2.0M</text></g></g><g id="xtick_6"><g id="line2d_12"><g><use xlink:href="#m5f93503ed2" x="567.68" y="318.76" style="stroke: #000000; stroke-width: 0.8"/></g></g><g id="text_6"><text style="font-size: 9px; font-family: sans-serif; text-anchor: middle" x="567.68" y="332.60">£2.5M</text></g></g><g id="xtick_7"><g id="line2d_14"><g><use xlink:href="#m5f93503ed2" x="661.29" y="318.76" style="stroke: #000000; stroke-width: 0.8"/></g></g><g id="text_7"><text style="font-size: 9px; font-family: sans-serif; text-anchor: middle" x="661.29" y="332.60">£3.0M</text></g></g><g id="text_8"><text style="font-size: 10px; font-family: sans-serif; text-anchor: middle" x="400.68" y="346.07">Amount (£)</text></g></g><g id="matplotlib.axis_2"><g id="ytick_1"><g id="line2d_16"><defs><path id="m86982988b2" d="M 0 0 L -3.5 0" style="stroke: #000000; stroke-width: 0.8"/></defs><g><use xlink:href="#m86982988b2" x="99.61" y="271.75" style="stroke: #000000; stroke-width: 0.8"/></g></g><g id="text_9"><text style="font-size: 9px; font-family: sans-serif; text-anchor: end" x="92.61" y="275.17">Data API</text></g></g><g id="ytick_2"><g id="line2d_18"><g><use xlink:href="#m86982988b2" x="99.61" y="174.82" style="stroke: #000000; stroke-width: 0.8"/></g></g><g id="text_10"><text style="font-size: 9px; font-family: sans-serif; text-anchor: end" x="92.61" y="178.24">Risk Engine</text></g></g><g id="ytick_3"><g id="line2d_20"><g><use xlink:href="#m86982988b2" x="99.61" y="77.89" style="stroke: #000000; stroke-width: 0.8"/></g></g><g id="text_11"><text style="font-size: 9px; font-family: sans-serif; text-anchor: end" x="92.61" y="81.31">Analytics Platform</text></g></g></g><g id="patch_9"><path d="M 99.61 318.76 L 99.61 30.88" style="fill: none; stroke: #000000; stroke-width: 0.8; stroke-linejoin: miter; stroke-linecap: square"/></g><g id="patch_10"><path d="M 99.61 318.76 L 701.76 318.76" style="fill: none; stroke: #000000; stroke-width: 0.8; stroke-linejoin: miter; stroke-linecap: square"/></g><g id="text_12"><text style="font-weight: 700; font-size: 8.5px; font-family: sans-serif; text-anchor: start; fill: #2e7d32" x="243.24" y="291.02">55.0% margin</text></g><g id="text_13"><text style="font-size: 8.5px; font-family: sans-serif; text-anchor: start; fill: #1565c0" x="358.39" y="257.13">£1.37M</text></g><g id="text_14"><text style="font-weight: 700; font-size: 8.5px; font-family: sans-serif; text-anchor: start; fill: #2e7d32" x="345.72" y="194.09">56.3% margin</text></g><g id="text_15"><text style="font-size: 8.5px; font-family: sans-serif; text-anchor: start; fill: #1565c0" x="534.52" y="160.20">£2.31M</text></g><g id="text_16"><text style="font-weight: 700; font-size: 8.5px; font-family: sans-serif; text-anchor: start; fill: #2e7d32" x="453.31" y="97.17">61.2% margin</text></g><g id="text_17"><text style="font-size: 8.5px; font-family: sans-serif; text-anchor: start; fill: #1565c0" x="675.89" y="63.27">£3.06M</text></g><g id="text_18"><text style="font-weight: 700; font-size: 12px; font-family: sans-serif; text-anchor: middle" x="400.68" y="20.88">Revenue &amp; Gross Profit by Product - FY2024 (Synthetic Demo)</text></g><g id="legend_1"><g id="patch_11"><path d="M 614.97 314.26 L 695.46 314.26 Q 697.26 314.26 697.26 312.46 L 697.26 286.94 Q 697.26 285.14 695.46 285.14 L 614.97 285.14 Q 613.17 285.14 613.17 286.94 L 613.17 312.46 Q 613.17 314.26 614.97 314.26 z" style="fill: #fafafa; opacity: 0.9; stroke: #cccccc; stroke-linejoin: miter"/></g><g id="patch_12"><path d="M 616.77 295.58 L 634.77 295.58 L 634.77 289.28 L 616.77 289.28 z" style="fill: #1565c0; opacity: 0.9"/></g><g id="text_19"><text style="font-size: 9px; font-family: sans-serif; text-anchor: start" x="641.97" y="295.58">Revenue</text></g><g id="patch_13"><path d="M 616.77 308.79 L 634.77 308.79 L 634.77 302.49 L 616.77 302.49 z" style="fill: #2e7d32; opacity: 0.9"/></g><g id="text_20"><text style="font-size: 9px; font-family: sans-serif; text-anchor: start" x="641.97" y="308.79">Gross Profit</text></g></g></g></g><defs><clipPath id="p186a8420b4"><rect x="99.61" y="30.88" width="602.15" height="287.88"/></clipPath></defs></svg>